<svg width="180" height="180" viewBox="0 0 180 180" fill="none" xmlns="http://www.w3.org/2000/svg">
  <defs>
    <linearGradient id="bgGradient" x1="0%" y1="0%" x2="100%" y2="100%">
      <stop offset="0%" style="stop-color:#3B82F6;stop-opacity:1" />
      <stop offset="100%" style="stop-color:#1E40AF;stop-opacity:1" />
    </linearGradient>
    <linearGradient id="clipboardGradient" x1="0%" y1="0%" x2="100%" y2="100%">
      <stop offset="0%" style="stop-color:#FFFFFF;stop-opacity:1" />
      <stop offset="100%" style="stop-color:#F3F4F6;stop-opacity:1" />
    </linearGradient>
  </defs>
  
  <!-- Background with rounded corners for Apple touch icon -->
  <rect width="180" height="180" rx="28" fill="url(#bgGradient)"/>
  
  <!-- Main clipboard -->
  <rect x="48" y="28" width="84" height="116" rx="8" ry="8" fill="url(#clipboardGradient)" stroke="#E5E7EB" stroke-width="1"/>
  
  <!-- Clipboard clip -->
  <rect x="67" y="20" width="46" height="15" rx="4" ry="4" fill="#374151"/>
  <rect x="71" y="24" width="38" height="7" rx="2" ry="2" fill="#6B7280"/>
  
  <!-- Task items -->
  <!-- Completed task 1 -->
  <rect x="58" y="48" width="7" height="7" rx="1" fill="#10B981"/>
  <path d="M60 51 L61.5 52.5 L64 50" stroke="white" stroke-width="1" stroke-linecap="round" fill="none"/>
  <rect x="69" y="49" width="50" height="1.5" rx="0.75" fill="#10B981" opacity="0.3"/>
  
  <!-- Completed task 2 -->
  <rect x="58" y="62" width="7" height="7" rx="1" fill="#10B981"/>
  <path d="M60 65 L61.5 66.5 L64 64" stroke="white" stroke-width="1" stroke-linecap="round" fill="none"/>
  <rect x="69" y="63" width="42" height="1.5" rx="0.75" fill="#10B981" opacity="0.3"/>
  
  <!-- Completed task 3 -->
  <rect x="58" y="76" width="7" height="7" rx="1" fill="#10B981"/>
  <path d="M60 79 L61.5 80.5 L64 78" stroke="white" stroke-width="1" stroke-linecap="round" fill="none"/>
  <rect x="69" y="77" width="54" height="1.5" rx="0.75" fill="#10B981" opacity="0.3"/>
  
  <!-- Pending tasks -->
  <rect x="58" y="96" width="7" height="7" rx="1" fill="none" stroke="#D1D5DB" stroke-width="1"/>
  <rect x="69" y="97" width="46" height="1.5" rx="0.75" fill="#6B7280"/>
  
  <rect x="58" y="110" width="7" height="7" rx="1" fill="none" stroke="#D1D5DB" stroke-width="1"/>
  <rect x="69" y="111" width="38" height="1.5" rx="0.75" fill="#6B7280"/>
  
  <!-- Small tool icon -->
  <circle cx="122" cy="112" r="9" fill="#F59E0B" opacity="0.9"/>
  <path d="M119.5 108 L122.5 111 L121 112.5 L118 109.5 C117.6 109.1 117.6 108.4 118 108 C118.4 107.6 119.1 107.6 119.5 108 Z M116 116 L114.5 117.5 L113 116 L114.5 114.5 Z" fill="white"/>
</svg>
