<svg xmlns="http://www.w3.org/2000/svg" width="180" height="180" viewBox="0 0 180 180">
  <defs>
    <linearGradient id="gradient" x1="0%" y1="0%" x2="100%" y2="100%">
      <stop offset="0%" stop-color="#3b82f6" />
      <stop offset="100%" stop-color="#8b5cf6" />
    </linearGradient>
  </defs>
  <rect width="180" height="180" rx="40" fill="url(#gradient)" />
  <g transform="translate(40, 40) scale(4.2)">
    <path d="M21 8v12a1 1 0 0 1-1 1H4a1 1 0 0 1-1-1V8m18 0V7a1 1 0 0 0-1-1h-2M3 8V7a1 1 0 0 1 1-1h2m0 0V3a1 1 0 0 1 1-1h10a1 1 0 0 1 1 1v3m0 0h-2M6 6h2" fill="none" stroke="white" stroke-width="1.5" stroke-linecap="round" stroke-linejoin="round" />
  </g>
</svg>