<?xml version="1.0" encoding="UTF-8"?>
<svg width="32px" height="27.0000673px" viewBox="0 0 32 27.0000673" version="1.1" xmlns="http://www.w3.org/2000/svg" xmlns:xlink="http://www.w3.org/1999/xlink">
    <title>favicon-32x32</title>
    <g id="logo" stroke="none" stroke-width="1" fill="none" fill-rule="evenodd">
        <g id="shapes" transform="translate(0, 0.0001)">
            <path d="M3.78012473,26.6556599 C2.16367563,25.9129207 2.06538238,25.3827306 2.4218558,19.3145572 C3.0493414,8.62608494 3.04882812,9.0794485 2.43083821,8.66692626 C-0.710567723,6.57007313 -0.827852352,2.34673201 2.19922031,0.352106689 C3.10246594,-0.24270729 3.05832381,-0.333230581 3.05832381,2.11326409 C3.05832381,4.59051428 2.97568562,4.37846315 4.17868716,4.98199327 L5.05832188,5.42315423 L5.93911149,4.972281 C7.12145347,4.36725669 7.03329752,4.59786073 7.0127663,2.17502414 C6.99223507,-0.220418887 6.99364659,-0.225275019 7.70800494,0.251373068 C10.7896137,2.30887907 10.7590735,6.35901814 7.64487142,8.54676811 C7.37219107,8.73839857 7.11644899,8.93886968 7.07795294,8.99191359 C6.93859724,9.18204986 7.00673525,10.9743363 7.58815391,22.3208768 C7.77922263,26.0554918 6.25336757,27.7923685 3.78012473,26.6556599 Z" id="Path-2" fill="#6A6CF6"></path>
            <path d="M5.75761081,25.6603092 C6.24956098,25.1160709 5.95147954,24.1849644 5.23423141,24.0252993 C4.59583205,23.8835569 4,24.3549023 4,25.0016497 C4,25.9224835 5.1355326,26.3480385 5.75761081,25.6603092 Z" id="Path" fill="#FFFFFF"></path>
            <path d="M14.202731,26.8338442 C14.1218173,26.6166529 14.4797139,24.4862952 14.9019515,22.673313 C15.7082852,19.2105559 15.649306,16.4843659 14.7049073,13.54337 C14.3260511,12.3620001 14.1798217,12.0986086 14.3607806,12.9220523 C15.1189804,16.372004 14.5545347,22.3991247 13.5243481,21.8508737 C9.6178278,19.7691015 8.82331435,13.7993544 11.8240649,9.07186611 C13.4820634,6.46042346 13.6129388,6.43493801 15.5736322,8.33818644 C19.6730535,12.3178086 20.1261212,17.3655599 16.7593095,21.5537108 L16.3971479,22.0049163 L16.3371938,24.4108432 C16.3038047,25.7339524 16.253843,26.8554378 16.2256938,26.9020147 C16.1252829,27.0692394 14.2669501,27.0064673 14.202731,26.8338442 Z" id="Path" fill="#6A6CF6"></path>
            <path d="M21.6886875,26.8008797 C21.119598,26.4677988 21.1105092,26.3807945 21.2408688,22.5494937 C21.5562505,13.2438926 21.5172985,13.6499126 22.1106681,13.4320907 L22.3297085,13.3518078 L22.3297085,10.1856729 C22.3297085,7.61935732 22.304909,7.01020277 22.1989594,6.97124377 C22.1101487,6.93825931 22.0487343,6.66455051 22.0087436,6.12136489 C21.8813703,4.39484615 20.160988,3.55666742 19.2643118,4.78431174 C18.9437364,5.22331625 18.6390015,5.31766426 17.5423714,5.31816213 L16.5041694,5.31915789 L16,4.74448144 L16,2.73840384 C16,0.02969497 16.01623,0.0034318705 17.6859747,0 C18.871805,-0.0024182038 19.0583853,0.0583229932 19.2547036,0.508529775 C19.6189053,1.34434358 20.6271143,1.33027851 21.4183603,0.478905994 L21.821514,0.0447557996 L23.661609,0.0160033068 C26.9502009,-0.0355271349 28.7162869,0.657395495 30.470168,2.68724681 C32.4436088,4.97151412 32.5364445,7.49687917 30.5817007,5.7290365 C28.2110788,3.58579332 26.4283732,3.74623472 26.253868,6.11949784 C26.206736,6.76126344 26.1605129,6.93240923 26.0154815,7.00684209 C25.8456505,7.09384639 25.8353931,7.28005301 25.8353931,10.2143009 L25.8353931,13.3289054 L26.1706405,13.5185971 C26.5952178,13.7588236 26.5871678,13.7081644 26.7103861,16.9415129 C26.7651786,18.3792621 26.8300987,19.828089 26.8543788,20.1621656 C27.2135168,25.0475999 27.1536604,26.4614509 26.5734047,26.8008797 C26.1189641,27.0663734 22.1431281,27.0663734 21.6886875,26.8008797 Z" id="Path" fill="#6A6CF6"></path>
        </g>
    </g>
</svg>