<?xml version="1.0" encoding="UTF-8"?>
<svg width="28px" height="23.0000573px" viewBox="0 0 28 23.0000573" version="1.1" xmlns="http://www.w3.org/2000/svg" xmlns:xlink="http://www.w3.org/1999/xlink">
    <title>favicon</title>
    <g id="logo" stroke="none" stroke-width="1" fill="none" fill-rule="evenodd">
        <g id="shapes" transform="translate(0, 0.0001)">
            <path d="M3.30760914,22.7066733 C1.89321617,22.0739695 1.80720958,21.6223261 2.11912382,16.4531413 C2.66817372,7.34814643 2.6677246,7.73434501 2.12698343,7.38293719 C-0.621746757,5.59672896 -0.724370808,1.999068 1.92431777,0.299942735 C2.7146577,-0.206750655 2.67603333,-0.283863088 2.67603333,1.80018793 C2.67603333,3.91043809 2.60372492,3.72980195 3.65635126,4.24392019 L4.42603165,4.61972398 L5.19672255,4.23564678 C6.23127179,3.7202557 6.15413533,3.91669618 6.13617051,1.85279834 C6.11820569,-0.187764237 6.11944077,-0.191900942 6.74450433,0.214132613 C9.44091197,1.96682292 9.41418929,5.41694138 6.68926249,7.28058024 C6.45066719,7.44382101 6.22689286,7.61459269 6.19320882,7.65977825 C6.07127259,7.82174618 6.13089334,9.34850872 6.63963467,19.0140802 C6.80681981,22.1954189 5.47169662,23.6749806 3.30760914,22.7066733 Z" id="Path-2" fill="#6A6CF6"></path>
            <path d="M5.03790946,21.858782 C5.46836586,21.3951715 5.2075446,20.6020067 4.57995248,20.4659957 C4.02135304,20.3452522 3.5,20.7467686 3.5,21.2977016 C3.5,22.0821156 4.49359102,22.4446254 5.03790946,21.858782 Z" id="Path" fill="#FFFFFF"></path>
            <path d="M12.4273896,22.8584599 C12.3565901,22.6734451 12.6697497,20.8586959 13.0392076,19.3143037 C13.7447495,16.3645476 13.6931427,14.0422376 12.8667939,11.5369448 C12.5352947,10.5305927 12.407344,10.3062222 12.5656831,11.0076742 C13.2291079,13.9465219 12.7352178,19.0807359 11.8338046,18.6137072 C8.41559933,16.8403458 7.72040006,11.7550056 10.3460568,7.72788595 C11.7968055,5.50332369 11.9113214,5.48161386 13.6269282,7.10289956 C17.2139218,10.4929481 17.610356,14.7928844 14.6643958,18.3605685 L14.3475044,18.7449287 L14.2950446,20.794422 C14.2658291,21.921515 14.2221126,22.8768544 14.1974821,22.916531 C14.1096225,23.0589817 12.4835813,23.0055092 12.4273896,22.8584599 Z" id="Path" fill="#6A6CF6"></path>
            <path d="M18.9776016,22.830379 C18.4796483,22.5466434 18.4716956,22.4725287 18.5857602,19.208828 C18.8617192,11.2818344 18.8276362,11.6277034 19.3468346,11.4421514 L19.5384949,11.3737622 L19.5384949,8.67668431 C19.5384949,6.49056364 19.5167954,5.97165421 19.4240895,5.93846691 C19.3463801,5.91036904 19.2926425,5.67720969 19.2576506,5.21449602 C19.1461991,3.74375783 17.6408645,3.02975373 16.8562728,4.07552481 C16.5757694,4.44949162 16.3091263,4.52986214 15.349575,4.53028626 L14.4411482,4.5311345 L14,4.0415953 L14,2.33271438 C14,0.0252957152 14.0142013,0.00292344524 15.4752278,0 C16.5128293,-0.00205995138 16.6760871,0.0496825497 16.8478657,0.43319203 C17.1665422,1.14518157 18.048725,1.13320021 18.7410652,0.407956958 L19.0938248,0.0381253108 L20.7039078,0.0136324465 C23.5814258,-0.0302638557 25.1267511,0.56000357 26.661397,2.28913617 C28.3881577,4.23499351 28.4693889,6.3862304 26.7589881,4.88029035 C24.684694,3.05456468 23.1248266,3.19123699 22.9721345,5.21290557 C22.930894,5.75959478 22.8904488,5.90538564 22.7635463,5.96879141 C22.6149442,6.04290618 22.605969,6.20152664 22.605969,8.70107115 L22.605969,11.3542527 L22.8993104,11.515842 C23.2708156,11.7204794 23.2637718,11.6773253 23.3715878,14.4316592 C23.4195313,15.6564084 23.4763364,16.8905943 23.4975815,17.1751781 C23.8118272,21.3368444 23.7594529,22.5412359 23.2517291,22.830379 C22.8540936,23.0565403 19.3752371,23.0565403 18.9776016,22.830379 Z" id="Path" fill="#6A6CF6"></path>
        </g>
    </g>
</svg>