<?xml version="1.0" encoding="UTF-8"?>
<svg width="534.94px" height="534.94px" viewBox="0 0 534.94 534.94" version="1.1" xmlns="http://www.w3.org/2000/svg" xmlns:xlink="http://www.w3.org/1999/xlink">
    <title>icon</title>
    <defs>
        <linearGradient x1="94.9190563%" y1="91.9000262%" x2="10.3133062%" y2="12.9808951%" id="linearGradient-1">
            <stop stop-color="#8360F6" offset="0%"></stop>
            <stop stop-color="#437EF6" offset="100%"></stop>
        </linearGradient>
    </defs>
    <g id="logo" stroke="none" stroke-width="1" fill="none" fill-rule="evenodd">
        <g id="icon" fill-rule="nonzero">
            <rect id="Rectangle" fill="url(#linearGradient-1)" x="0" y="0" width="534.94" height="534.94" rx="144.91"></rect>
            <path d="M186.74,132 C183.424235,127.558058 179.525936,123.5824 175.15,120.18 C172.93496,118.494613 170.59487,116.980241 168.15,115.65 C167.44,115.27 161.26,112.74 161.26,112.54 L161.26,159.17 C161.26,159.67 161.68,165.68 161.26,165.86 L137.67,176.12 L114.08,165.86 C113.66,165.68 114.08,159.67 114.08,159.17 L114.08,112.56 C114.08,112.76 107.9,115.29 107.19,115.67 C104.764038,116.99999 102.443874,118.514449 100.25,120.2 C95.8875677,123.596812 92.0026296,127.565839 88.7,132 C81.1303198,141.850273 76.8359734,153.824086 76.42,166.24 C76.19,177.92 80.77,188.71 87.48,198.09 C93.0198509,205.719815 99.8409146,212.331104 107.64,217.63 C110.687932,219.715791 112.424684,223.242384 112.22,226.93 L102.54,389.55 C102.412857,391.672822 102.446285,393.802215 102.64,395.92 C106.47,437.92 168.97,437.92 172.8,395.92 C172.9985,393.802474 173.031934,391.672713 172.9,389.55 L163.22,227 C163.015316,223.312384 164.752068,219.785791 167.8,217.7 C175.617577,212.389783 182.452641,205.761126 188,198.11 C194.71,188.73 199.29,177.94 199.06,166.26 C198.636641,153.832727 194.32793,141.850872 186.74,132 L186.74,132 Z" id="Path" fill="#F4F2F2"></path>
            <path d="M245.59,259.21 C252.18,299.56 255.59,336.96 244.44,360.58 C243.067052,363.411544 240.43089,365.422722 237.337232,365.998837 C234.243575,366.574952 231.060171,365.647519 228.76,363.5 C180.76,319.25 187.24,252.87 231.97,200.36 C235.225213,196.543734 240.815336,195.754339 245,198.52 C306.72,239.89 313.65,309.1 269.53,371 L268.3,421.38 C268.202601,424.722625 265.464043,427.380001 262.12,427.380001 L250.37,427.380001 C248.520588,427.380001 246.768661,426.55042 245.593859,425.122077 C244.419056,423.693734 243.944458,421.814915 244.3,420 L254.48,367.88 C265,320.2 255.6,289.43 245.59,259.21 Z" id="Path" fill="#F4F2F2"></path>
            <path d="M458.39,176 C446,118 391.8,109.78 384.9,109 C384.458541,108.948156 384.014491,108.921446 383.57,108.92 L337.22,108.92 C337.22,108.92 323.09,121.23 317.17,121.23 C311.25,121.23 304.17,107.55 304.17,107.55 L280.84,107.55 C277.838668,107.55 274.960409,108.742957 272.839085,110.866157 C270.717761,112.989357 269.527346,115.868669 269.529996,118.87 L269.529996,164.5 L275.22,170.88 L290.72,170.88 C312.15,170.88 300.72,157.66 318.72,157.66 C336.72,157.66 340.49,177.83 340.49,183.59 C340.456921,185.428365 340.839794,187.25043 341.61,188.92 C342.933862,191.588882 343.641277,194.521067 343.68,197.5 L343.68,263.5 C343.68,265.863779 341.763779,267.78 339.4,267.78 L337.88,267.78 C335.584924,267.783551 333.701157,269.596732 333.61,271.89 L328.08,421 C328.017554,422.679433 328.64066,424.312069 329.806172,425.522844 C330.971684,426.733618 332.579408,427.420003 334.26,427.420003 L394.58,427.420003 C396.266909,427.420003 397.881161,426.733574 399.04822,425.515527 C400.215279,424.29748 400.833701,422.655299 400.76,420.97 L394.5,271.85 C394.398275,269.560734 392.511524,267.757741 390.22,267.76 L390.22,267.76 C387.861744,267.76 385.95,265.848256 385.95,263.49 C385.95,247.1 385.95,202.16 385.95,194.49 C385.962023,193.777899 386.17712,193.084035 386.57,192.49 L386.57,192.49 C388.490366,189.55447 389.777745,186.250876 390.35,182.79 C391.76,174.26 395.95,157.52 407.15,157.52 C417.02,157.52 436.6,171.86 448.91,181.73 C453.17,185.14 459.54,181.35 458.39,176 Z" id="Path" fill="#F4F2F2"></path>
        </g>
    </g>
</svg>