<?xml version="1.0" encoding="UTF-8"?>
<svg width="192px" height="192px" viewBox="0 0 192 192" version="1.1" xmlns="http://www.w3.org/2000/svg" xmlns:xlink="http://www.w3.org/1999/xlink">
    <title>icon-192</title>
    <defs>
        <linearGradient x1="0%" y1="0%" x2="100%" y2="100%" id="linearGradient-1">
            <stop stop-color="#3B82F6" offset="0%"></stop>
            <stop stop-color="#8B5CF6" offset="100%"></stop>
        </linearGradient>
    </defs>
    <g id="logo" stroke="none" stroke-width="1" fill="none" fill-rule="evenodd">
        <g id="icon-192">
            <rect id="Rectangle" fill="url(#linearGradient-1)" fill-rule="nonzero" x="0" y="0" width="192" height="192" rx="48"></rect>
            <g id="icon" transform="translate(17, 30)">
                <path d="M18.5226112,130.31656 C10.6020106,126.68539 10.1203737,124.09335 11.8670934,94.4267241 C14.9417728,42.1719708 14.9392578,44.3884149 11.9111072,42.3716395 C-3.48178184,32.1203575 -4.05647653,11.472912 10.7761795,1.72141048 C15.2020831,-1.18656897 14.9857867,-1.62912729 14.9857867,10.3315133 C14.9857867,22.4425142 14.5808596,21.4058199 20.4755671,24.3564115 L24.7857772,26.5131985 L29.1016463,24.3089294 C34.895122,21.3510327 34.4631579,22.4784302 34.3625549,10.6334513 C34.2619518,-1.07760345 34.2688683,-1.10134454 37.7692242,1.228935 C52.869107,11.2878533 52.71946,31.0885331 37.45987,41.7841996 C36.1237363,42.7210597 34.8706,43.7011407 34.6819694,43.9604665 C33.9991265,44.8900215 34.3330027,53.6523109 37.1819542,109.124287 C38.1181909,127.382404 30.6415011,135.873802 18.5226112,130.31656 Z" id="Path-2" fill="#FFFFFF"></path>
                <path d="M29.5456649,123.961855 C32.4973659,120.696426 30.7088773,115.109786 26.4053885,114.151796 C22.5749923,113.301341 19,116.129414 19,120.009898 C19,125.534901 25.8131956,128.088231 29.5456649,123.961855 Z" id="Path" fill="#6A6CF6"></path>
                <path d="M68.6127444,131.202452 C68.2351475,130.159934 69.9053317,119.934217 71.8757738,111.231902 C75.6386642,94.6106682 75.3634279,81.5249564 70.9562342,67.4081761 C69.1882386,61.7376006 68.5058345,60.4733214 69.3503096,64.4258511 C72.8885754,80.985619 70.2544952,109.915799 65.4469577,107.284194 C47.2165298,97.2916874 43.5088003,68.6369013 57.512303,45.9449573 C65.2496291,33.4100326 65.8603809,33.2877024 75.0102837,42.4232949 C94.1409165,61.5254813 96.2552322,85.7546875 80.5434444,105.857812 L78.8533567,108.023598 L78.5735709,119.572048 C78.4177553,125.922972 78.1846005,131.306101 78.0532377,131.52967 C77.5846535,132.332349 68.9124336,132.031043 68.6127444,131.202452 Z" id="Path" fill="#FFFFFF"></path>
                <path d="M106.732352,131.026523 C103.95804,129.398128 103.913733,128.972773 104.549235,110.241969 C106.086721,64.7479193 105.89683,66.7329062 108.789507,65.6679991 L109.857329,65.2755047 L109.857329,49.796623 C109.857329,37.2501913 109.736431,34.2721024 109.219927,34.0816362 C108.786975,33.9203788 108.48758,32.5822469 108.292625,29.9266728 C107.67168,21.4859145 99.2848167,17.3881518 94.91352,23.3899685 C93.350715,25.5362128 91.8651324,25.9974697 86.5190607,25.9999038 L81.4578258,26.0047719 L79,23.1952426 L79,13.3877521 C79,0.145175409 79.0791214,0.0167780336 87.2191264,0 C93.0000492,-0.0118223297 93.9096283,0.285134633 94.8666802,2.48614557 C96.6421634,6.5723464 101.557182,6.50358382 105.414506,2.34131819 L107.379881,0.218806131 L116.350344,0.0782383886 C132.382229,-0.173688215 140.991899,3.21393353 149.542069,13.1376511 C159.162593,24.3051801 159.615167,36.6514093 150.085791,28.0086229 C138.529009,17.5305451 129.838319,18.3149253 128.987607,29.917545 C128.757838,33.0550657 128.532501,33.8917785 127.825472,34.2556725 C126.997546,34.6810268 126.947542,35.5913703 126.947542,49.9365822 L126.947542,65.1635373 L128.581872,66.0909193 C130.651687,67.2653598 130.612443,67.0176928 131.213132,82.8251744 C131.480246,89.8541701 131.796731,96.9373238 131.915097,98.5705871 C133.665894,122.454933 133.374095,129.367093 130.545348,131.026523 C128.32995,132.324492 108.94775,132.324492 106.732352,131.026523 Z" id="Path" fill="#FFFFFF"></path>
            </g>
        </g>
    </g>
</svg>