<svg width="512" height="512" viewBox="0 0 512 512" fill="none" xmlns="http://www.w3.org/2000/svg">
  <defs>
    <linearGradient id="bgGradient" x1="0%" y1="0%" x2="100%" y2="100%">
      <stop offset="0%" style="stop-color:#3B82F6;stop-opacity:1" />
      <stop offset="100%" style="stop-color:#1E40AF;stop-opacity:1" />
    </linearGradient>
    <linearGradient id="clipboardGradient" x1="0%" y1="0%" x2="100%" y2="100%">
      <stop offset="0%" style="stop-color:#FFFFFF;stop-opacity:1" />
      <stop offset="100%" style="stop-color:#F3F4F6;stop-opacity:1" />
    </linearGradient>
    <filter id="shadow" x="-50%" y="-50%" width="200%" height="200%">
      <feDropShadow dx="0" dy="8" stdDeviation="12" flood-color="#000000" flood-opacity="0.15"/>
    </filter>
  </defs>
  
  <!-- Background circle -->
  <circle cx="256" cy="256" r="256" fill="url(#bgGradient)"/>
  
  <!-- Main clipboard with shadow -->
  <g filter="url(#shadow)">
    <rect x="140" y="80" width="232" height="320" rx="20" ry="20" fill="url(#clipboardGradient)" stroke="#E5E7EB" stroke-width="2"/>
  </g>
  
  <!-- Clipboard clip -->
  <rect x="190" y="60" width="132" height="40" rx="12" ry="12" fill="#374151"/>
  <rect x="200" y="70" width="112" height="20" rx="6" ry="6" fill="#6B7280"/>
  
  <!-- Task items with checkmarks -->
  <g>
    <!-- Completed task 1 -->
    <rect x="170" y="140" width="20" height="20" rx="3" fill="#10B981"/>
    <path d="M175 148 L180 153 L185 143" stroke="white" stroke-width="2.5" stroke-linecap="round" stroke-linejoin="round" fill="none"/>
    <rect x="200" y="143" width="140" height="3" rx="1.5" fill="#10B981" opacity="0.3"/>
    <rect x="200" y="148" width="100" height="3" rx="1.5" fill="#10B981" opacity="0.3"/>
    
    <!-- Completed task 2 -->
    <rect x="170" y="180" width="20" height="20" rx="3" fill="#10B981"/>
    <path d="M175 188 L180 193 L185 183" stroke="white" stroke-width="2.5" stroke-linecap="round" stroke-linejoin="round" fill="none"/>
    <rect x="200" y="183" width="120" height="3" rx="1.5" fill="#10B981" opacity="0.3"/>
    <rect x="200" y="188" width="90" height="3" rx="1.5" fill="#10B981" opacity="0.3"/>
    
    <!-- Completed task 3 -->
    <rect x="170" y="220" width="20" height="20" rx="3" fill="#10B981"/>
    <path d="M175 228 L180 233 L185 223" stroke="white" stroke-width="2.5" stroke-linecap="round" stroke-linejoin="round" fill="none"/>
    <rect x="200" y="223" width="160" height="3" rx="1.5" fill="#10B981" opacity="0.3"/>
    <rect x="200" y="228" width="110" height="3" rx="1.5" fill="#10B981" opacity="0.3"/>
    
    <!-- Pending task 1 -->
    <rect x="170" y="280" width="20" height="20" rx="3" fill="none" stroke="#D1D5DB" stroke-width="2"/>
    <rect x="200" y="283" width="130" height="3" rx="1.5" fill="#6B7280"/>
    <rect x="200" y="288" width="100" height="3" rx="1.5" fill="#6B7280"/>
    
    <!-- Pending task 2 -->
    <rect x="170" y="320" width="20" height="20" rx="3" fill="none" stroke="#D1D5DB" stroke-width="2"/>
    <rect x="200" y="323" width="110" height="3" rx="1.5" fill="#6B7280"/>
    <rect x="200" y="328" width="85" height="3" rx="1.5" fill="#6B7280"/>
  </g>
  
  <!-- Small wrench tool icon -->
  <g transform="translate(320, 320)">
    <circle cx="20" cy="20" r="24" fill="#F59E0B" opacity="0.9"/>
    <path d="M18 8 L24 14 L22 16 L16 10 C15 9 15 7.5 16 6.5 C17 5.5 18.5 5.5 19.5 6.5 C20.5 7.5 20.5 9 19.5 10 L18 8 Z M12 20 L8 24 L6 22 L10 18 L12 20 Z" fill="white"/>
  </g>
</svg>
