<?xml version="1.0" encoding="UTF-8"?>
<svg width="512px" height="512px" viewBox="0 0 512 512" version="1.1" xmlns="http://www.w3.org/2000/svg" xmlns:xlink="http://www.w3.org/1999/xlink">
    <title>icon</title>
    <defs>
        <linearGradient x1="0%" y1="0%" x2="100%" y2="100%" id="linearGradient-1">
            <stop stop-color="#3B82F6" offset="0%"></stop>
            <stop stop-color="#8B5CF6" offset="100%"></stop>
        </linearGradient>
    </defs>
    <g id="logo" stroke="none" stroke-width="1" fill="none" fill-rule="evenodd">
        <g id="icon">
            <rect id="Rectangle" fill="url(#linearGradient-1)" fill-rule="nonzero" x="0" y="0" width="512" height="512" rx="128"></rect>
            <g transform="translate(123, 127)">
                <path d="M31.3750353,238.913693 C17.9585077,232.256548 17.1426738,227.504475 20.1014031,173.115661 C25.3095336,77.3152798 25.3052734,81.3787606 20.1759571,77.6813391 C-5.8977121,58.8873221 -6.87117452,21.033672 18.2535286,3.15591921 C25.7504673,-2.17537645 25.3840876,-2.98673336 25.3840876,18.9411078 C25.3840876,41.1446094 24.6981907,39.2440031 34.6831034,44.6534212 L41.9840716,48.6075305 L49.2946253,44.5663705 C59.1080638,39.14356 58.3763694,41.2104555 58.2059603,19.4946608 C58.0355511,-1.97560632 58.0472667,-2.01913166 63.976441,2.2530475 C89.5537935,20.6943976 89.3003099,56.995644 63.4524328,76.604366 C61.1891859,78.3219427 59.0665266,80.1187579 58.7470094,80.5941885 C57.5903571,82.2983728 58.1559026,98.36257 62.9816775,200.061192 C64.5675479,233.534408 51.9029508,249.10197 31.3750353,238.913693 Z" id="Path-2" fill="#FFFFFF"></path>
                <path d="M49.5761081,227.263402 C54.4956098,221.27678 51.5147954,211.034608 44.3423141,209.278292 C37.9583205,207.719126 32,212.903925 32,220.018147 C32,230.147318 43.355326,234.828424 49.5761081,227.263402 Z" id="Path" fill="#6A6CF6"></path>
                <path d="M116.154878,240.537829 C115.516559,238.626546 118.339966,219.879398 121.670951,203.925155 C128.032028,173.452892 127.566747,149.46242 120.116491,123.581656 C117.127737,113.185601 115.974149,110.867756 117.401714,118.11406 C123.383068,148.473635 118.930218,201.512298 110.80319,196.687688 C79.985086,178.368094 73.7172577,125.834319 97.3898455,84.2324218 C110.469611,61.2517264 111.502072,61.0274545 126.969765,77.7760407 C159.309645,112.796716 162.883845,157.216927 136.323442,194.072655 L133.466389,198.043263 L132.993418,219.215421 C132.730015,230.858781 132.335872,240.727853 132.113807,241.137729 C131.321676,242.609307 116.661495,242.056913 116.154878,240.537829 Z" id="Path" fill="#FFFFFF"></path>
                <path d="M179.931672,240.215292 C175.236684,237.229901 175.161701,236.450084 176.237167,202.110277 C178.839067,118.704519 178.517713,122.343661 183.413012,120.391332 L185.220095,119.671759 L185.220095,91.2938089 C185.220095,68.2920174 185.015499,62.8321878 184.141415,62.4829997 C183.408727,62.1873612 182.902058,59.7341194 182.572134,54.8655668 C181.521305,39.3908433 167.328151,31.8782784 159.930572,42.8816089 C157.285825,46.8163901 154.771763,47.6620278 145.724564,47.6664902 L137.159398,47.6754152 L133,42.5246115 L133,24.5442122 C133,0.266154916 133.133898,0.0307597282 146.909291,0 C156.692391,-0.0216742711 158.231679,0.522746828 159.851305,4.55793354 C162.855969,12.0493017 171.173693,11.923237 177.701472,4.29241669 L181.027491,0.401144574 L196.208274,0.143437046 C223.339157,-0.318428395 237.909367,5.89221148 252.378886,24.0856936 C268.659772,44.5594969 269.425667,67.1942503 253.299031,51.349142 C233.7414,32.1393328 219.034079,33.5773631 217.594411,54.8488325 C217.205572,60.6009538 216.824232,62.1349272 215.627722,62.8020662 C214.226617,63.5818824 214.141993,65.2508455 214.141993,91.5504008 L214.141993,119.466485 L216.907784,121.166685 C220.410547,123.319826 220.344134,122.86577 221.360685,151.846153 C221.812724,164.732645 222.348314,177.718427 222.548625,180.712743 C225.511513,224.500711 225.017699,237.173004 220.230589,240.215292 C216.481454,242.594903 183.680807,242.594903 179.931672,240.215292 Z" id="Path" fill="#FFFFFF"></path>
            </g>
        </g>
    </g>
</svg>