<?xml version="1.0" encoding="UTF-8"?>
<svg width="623px" height="623px" viewBox="0 0 623 623" version="1.1" xmlns="http://www.w3.org/2000/svg" xmlns:xlink="http://www.w3.org/1999/xlink">
    <title>logo-icon</title>
    <defs>
        <linearGradient x1="0%" y1="0%" x2="100%" y2="100%" id="linearGradient-1">
            <stop stop-color="#3B82F6" offset="0%"></stop>
            <stop stop-color="#8B5CF6" offset="100%"></stop>
        </linearGradient>
    </defs>
    <g id="logo" stroke="none" stroke-width="1" fill="none" fill-rule="evenodd">
        <g id="icon">
            <rect id="Rectangle" fill="url(#linearGradient-1)" fill-rule="nonzero" x="0" y="0" width="623" height="623" rx="128"></rect>
            <g id="shapes" transform="translate(57, 97)" fill="#FFFFFF">
                <path d="M60.1039832,423.528819 C34.4024425,411.727518 32.8395799,403.303387 38.5075072,306.886853 C48.4845282,137.058905 48.476367,144.262348 38.6503275,137.707828 C-11.2980268,104.391162 -13.1628524,37.2869641 34.967603,5.59458406 C49.3292085,-3.85634916 48.6273486,-5.29466368 48.6273486,33.5774184 C48.6273486,72.9381713 47.3134014,69.5689146 66.4411258,79.1583375 L80.4273179,86.1678951 L94.4318726,79.0040204 C113.23111,69.3908564 111.829431,73.0548983 111.502984,34.5587169 C111.176538,-3.5022112 111.198981,-3.57936975 122.557279,3.99403874 C171.554857,36.6855231 171.069268,101.037733 121.553456,135.798649 C117.217838,138.843444 113.151539,142.028707 112.539452,142.871516 C110.323696,145.89257 111.40709,174.37001 120.651647,354.653931 C123.68964,413.992814 99.4285443,441.589855 60.1039832,423.528819 Z" id="Path"></path>
                <path d="M96.2734108,402.37603 C105.866439,391.763383 100.053851,373.606805 86.0675125,370.493336 C73.618725,367.729359 62,376.920594 62,389.53217 C62,407.488428 84.1428857,415.786751 96.2734108,402.37603 Z" id="Path"></path>
                <path d="M222.507934,426.40797 C221.285239,423.019786 226.693455,389.786206 233.073934,361.503683 C245.258532,307.484672 244.36729,264.956108 230.096377,219.076572 C224.371439,200.647202 222.16175,196.538294 224.896241,209.384016 C236.353482,263.203262 227.82408,357.226346 212.256815,348.673629 C153.224953,316.197984 141.218972,223.069929 186.563648,149.321111 C211.617847,108.582606 213.595519,108.185033 243.223776,137.875708 C305.170587,199.957814 312.016942,278.702734 261.140677,344.037889 L255.668012,351.076694 L254.762039,388.609155 C254.257493,409.249658 253.502516,426.74483 253.077151,427.471429 C251.55983,430.080134 223.478356,429.100891 222.507934,426.40797 Z" id="Path"></path>
                <path d="M345.952371,425.836199 C336.953644,420.543915 336.809927,419.161513 338.871237,358.286401 C343.858212,210.430738 343.242282,216.881945 352.624939,213.420997 L356.088515,212.14539 L356.088515,161.839025 C356.088515,121.063122 355.696373,111.384333 354.021046,110.765318 C352.616727,110.241231 351.645612,105.892303 351.013257,97.2616866 C348.999169,69.8292222 321.795623,56.5114935 307.61693,76.0173976 C302.547832,82.9926915 297.729212,84.4917765 280.388748,84.4996873 L263.972179,84.5155087 L256,75.3845385 L256,43.5101943 C256,0.471820079 256.256637,0.0545286091 282.659474,0 C301.410416,-0.0384225714 304.360717,0.926687558 307.465001,8.07997309 C313.22394,21.3601258 329.166244,21.1366474 341.677822,7.60928413 L348.05269,0.711119927 L377.149192,0.254274763 C429.150051,-0.564486699 457.076287,10.445284 484.809531,42.6973659 C516.014564,78.9918354 517.482529,119.11708 486.573142,91.0280244 C449.087684,56.9742717 420.898652,59.5235073 418.139288,97.2320213 C417.394014,107.428964 416.663111,110.14828 414.369801,111.330935 C411.684349,112.713337 411.522154,115.671953 411.522154,162.293892 L411.522154,211.781496 L416.823253,214.795488 C423.536882,218.612419 423.40959,217.807502 425.35798,269.181817 C426.224387,292.026053 427.250936,315.046302 427.634865,320.354408 C433.313734,397.978532 432.367256,420.443053 423.191962,425.836199 C416.00612,430.0546 353.138214,430.0546 345.952371,425.836199 Z" id="Path"></path>
            </g>
        </g>
    </g>
</svg>